<svg width="683" height="683" viewBox="0 0 683 683" fill="none" xmlns="http://www.w3.org/2000/svg">
<g clip-path="url(#clip0_103_2)">
<path d="M505.333 0.800049C503.466 1.06672 497.466 2.00005 492 2.80005C478.666 4.80005 461.6 10.5334 447.2 17.7334C401.6 40.8001 369.2 84.0001 360 133.733L358.266 142.933L354.133 142.133C351.866 141.733 342.666 141.067 333.733 140.533L317.466 139.6L313.333 143.733L309.333 147.733V165.2V182.667H294H278.666V166C278.666 139.333 277.866 138.8 246.8 141.067C212 143.733 185.733 150.533 156.133 164.667L141.066 172L134.8 166.533C110.4 144.8 69.0665 133.6 32.6665 138.667C15.0665 141.067 5.46648 144 2.53314 147.867C-0.133522 151.067 -0.266855 152.4 0.533145 166.267C2.53315 203.6 14.3998 239.867 34.5331 271.067C42.5331 283.333 42.7998 284 40.9331 287.6C33.4665 302.4 25.9998 334.133 23.7331 360.8C21.9998 381.867 24.1331 473.2 26.7998 495.333C28.7998 511.333 32.5331 525.067 35.8665 528.4C39.5998 532.267 46.3998 532 49.5998 528C52.5331 524.4 52.3998 521.333 48.7998 506C45.7331 492.533 43.8665 455.467 43.5998 402C43.3331 361.467 43.5998 353.6 45.8665 342C47.9998 330.133 55.3331 302.8 56.7998 301.467C57.0665 301.2 59.9998 303.467 63.3331 306.533C68.9331 311.6 71.0665 312.667 75.9998 312.133C78.7998 311.733 83.9998 305.6 83.9998 302.533C83.9998 301.2 79.9998 295.6 75.0665 290.4C43.9998 256.4 26.9331 219.867 21.1998 174.933C20.3998 168.133 19.9998 162.267 20.3998 161.867C21.9998 160.267 31.9998 158.667 45.3331 157.867C80.2665 155.733 108.666 167.067 133.066 192.667C142.533 202.667 144.533 204 148.533 204C152 204 153.866 203.067 156 200.4C158.666 196.933 158.933 194.267 156.8 189.067C156 187.333 157.866 185.867 165.866 182.133C192.533 169.467 220.933 162.267 248.666 161.067L258 160.667L258.666 179.067C259.6 204.267 257.2 202.667 294 202.667C331.2 202.667 329.066 204 329.6 178.933L330 160.667L340 161.067C356.8 161.733 357.333 162 357.333 168.4C357.333 178.4 361.066 199.333 365.2 212.133C380.133 258.667 415.2 296.267 460.666 314C480.933 322 494.133 324.4 517.6 324.533L538.533 324.667L540 331.067C544.266 350.933 544.666 357.733 544.4 403.333C544.133 460.4 542.266 494 538.666 509.2C532 536.933 514.533 563.2 491.466 580.267C470.666 595.733 449.6 603.2 420.133 605.333C370.4 609.067 217.6 609.067 167.866 605.333C128.266 602.4 99.0665 588.133 75.0665 559.867C69.7331 553.467 63.9998 548 62.5331 547.6C56.2665 546 50.6665 550.8 50.6665 557.867C50.6665 561.6 62.7998 577.467 72.6665 586.533L78.9331 592.4L76.2665 603.867C71.8665 622.133 70.3998 631.867 70.1331 644.667C69.9998 655.6 70.3998 657.333 73.9998 664C81.5998 677.733 96.3998 684.8 110.8 681.6C135.866 675.733 165.466 655.2 179.733 633.6L184.533 626.4L210 627.333C242.4 628.533 348.133 628.533 379.333 627.333L403.333 626.4L408.533 633.867C416.133 644.933 435.333 662.4 447.066 669.2C458.666 675.733 477.2 682.667 483.466 682.667C499.2 682.667 513.466 671.333 517.466 655.333C519.466 647.467 517.333 626.267 512.533 606.933L509.2 593.2L520.266 581.467C544 556.4 557.333 529.067 561.2 496.667C563.333 478.8 565.733 395.6 564.933 372.667C564.133 355.2 563.2 346.8 559.333 325.333L558.4 320.533L565.466 318.8C582.266 314.4 601.6 304.667 618.4 292C665.333 256.667 689.6 196.933 680.666 138.667C676.8 112.533 664.533 82.9334 650.933 66.8C646.4 61.3334 640.133 60.5334 635.733 65.0667C631.466 69.3334 632.133 74.4 638.666 83.8667C646.8 95.8667 654.266 112.667 658.266 127.733C661.333 139.2 661.733 143.2 661.733 162.667C661.733 182.133 661.333 186.133 658.266 197.733C647.6 237.867 621.2 270.933 585.333 289.2C563.866 300.133 542.8 305.333 520 305.333C497.2 305.333 476.133 300.133 454.666 289.2C418.8 270.933 392.4 237.867 381.733 197.6C378.666 186.133 378.266 182.133 378.266 162.667C378.266 142.933 378.533 139.333 381.866 127.333C398.666 65.8667 450.4 23.8667 514 20.4C544.533 18.8 574.533 27.6 601.866 46.1334C607.6 50.1334 613.333 53.3334 614.666 53.3334C615.866 53.3334 618.533 52.1334 620.533 50.5334C625.333 46.8001 625.333 39.7334 620.533 35.3334C606.133 22 576.533 8.26671 552 3.33337C542 1.33337 511.6 -0.266618 505.333 0.800049ZM109.866 611.467C122.133 617.2 141.2 622.8 155.333 624.667L162 625.6L150.4 636.667C141.066 645.6 136 649.2 125.333 654.533C109.2 662.667 104 663.867 97.7331 660.8C90.5331 657.333 88.9331 651.867 90.6665 636.4C91.8665 624.8 95.5998 605.333 96.5331 605.333C96.7998 605.333 102.8 608.133 109.866 611.467ZM493.866 614.4C494.933 619.333 496.533 629.2 497.466 636.133C498.666 646.933 498.533 649.6 496.8 653.733C494.266 659.867 487.733 663.467 481.066 662.133C474 660.8 455.333 651.333 446.933 644.8C438.133 638 427.2 627.067 428.133 626C428.533 625.6 434.133 624.4 440.666 623.333C455.066 620.8 469.2 616.133 481.066 610C486 607.467 490.4 605.467 490.933 605.333C491.333 605.333 492.666 609.467 493.866 614.4Z" fill="#E6E6FA"/>
<path d="M505.466 50.6667C466.666 56 434 80.2667 417.466 116.267C409.866 132.667 407.333 144.4 407.466 163.333C407.6 195.733 418.8 221.733 442.4 244.267C459.6 260.667 478 270 500.8 274C515.333 276.533 524.666 276.533 539.333 274C562.533 269.867 580.933 260.4 598.4 243.467C621.466 221.2 632.4 195.6 632.533 163.333C632.666 144.4 630.133 132.8 622.533 116.267C604.533 77.2 568.533 52.6667 525.866 50.2667C519.333 49.8667 510.133 50 505.466 50.6667ZM543.333 72.8C575.2 80.9333 601.733 107.6 610.266 140C613.733 153.333 613.466 175.333 609.466 188C604.266 204.933 597.866 215.467 585.333 228.133C575.6 237.867 571.866 240.667 561.333 245.733C533.2 259.333 506.8 259.333 478.666 245.733C468.133 240.667 464.266 237.867 454.666 228.133C445.466 218.933 442 214.4 437.6 205.333C421.866 173.333 423.733 139.867 442.8 111.333C464.8 78.4 504.933 63.0667 543.333 72.8Z" fill="#FFA500"/>
<g clip-path="url(#clip1_103_2)">
<path d="M479 107C479 107 491.925 107 504.958 107M538.333 235L486.417 179C486.417 179 497.542 179 504.958 179C512.375 179 545.75 179.494 545.75 143C545.75 106.506 512.375 107 504.958 107M568 107C568 107 526.681 107 504.958 107M479 143H568" stroke="#FFA500" stroke-width="15"/>
</g>
<path d="M147.023 505V347.909H241.216V364.784H166.045V417.864H234.159V434.739H166.045V505H147.023ZM273.796 505V347.909H328.717C339.66 347.909 348.685 349.801 355.793 353.585C362.901 357.318 368.194 362.355 371.671 368.696C375.148 374.986 376.887 381.966 376.887 389.636C376.887 396.386 375.685 401.96 373.282 406.358C370.93 410.756 367.81 414.233 363.924 416.79C360.089 419.347 355.921 421.239 351.421 422.466V424C356.228 424.307 361.06 425.994 365.918 429.062C370.776 432.131 374.842 436.528 378.114 442.256C381.387 447.983 383.023 454.989 383.023 463.273C383.023 471.148 381.234 478.23 377.654 484.52C374.075 490.81 368.424 495.795 360.702 499.477C352.981 503.159 342.933 505 330.558 505H273.796ZM292.819 488.125H330.558C342.984 488.125 351.805 485.722 357.021 480.915C362.288 476.057 364.921 470.176 364.921 463.273C364.921 457.955 363.566 453.045 360.856 448.545C358.146 443.994 354.285 440.364 349.273 437.653C344.262 434.892 338.33 433.511 331.478 433.511H292.819V488.125ZM292.819 416.943H328.103C333.83 416.943 338.995 415.818 343.597 413.568C348.251 411.318 351.933 408.148 354.643 404.057C357.404 399.966 358.785 395.159 358.785 389.636C358.785 382.733 356.381 376.878 351.575 372.071C346.768 367.213 339.148 364.784 328.717 364.784H292.819V416.943ZM433.303 347.909V505H414.281V347.909H433.303Z" fill="#E6E6FA"/>
</g>
<defs>
<clipPath id="clip0_103_2">
<rect width="682.667" height="682.667" fill="white"/>
</clipPath>
<clipPath id="clip1_103_2">
<rect width="89" height="128" fill="white" transform="translate(479 99)"/>
</clipPath>
</defs>
</svg>
